<svg width="68" height="69" viewBox="-0.50 -1.23 68.00 68.74" fill="none" xmlns="http://www.w3.org/2000/svg">
<path d="M6.87499 36.3347C5.37349 10.1753 14.8358 6.61162 23.5926 4.29236C25.3355 4.02511 27.0348 3.94593 28.6758 4.03501C42.7746 4.80035 48.7168 17.473 48.7168 31.0249V67H6.87499V36.3347Z" fill="#721F1F"/>
<path d="M38.3079 8C36.5976 5.69643 34.0042 0.886873 37.3128 0.0772484C40.6214 -0.732376 39.3548 5.02174 38.3079 8C40.1322 6.03377 44.2908 2.69117 46.3307 5.05065C48.3706 7.41013 41.8321 8 38.3079 8Z" fill="#721F1F"/>
<path d="M44.938 67.0054C44.938 62.4713 43.1368 58.1229 39.9307 54.9168C36.7246 51.7107 32.3761 49.9095 27.842 49.9095C23.3079 49.9095 18.9595 51.7107 15.7534 54.9168C12.5473 58.1229 10.7461 62.4713 10.7461 67.0054L27.842 67.0054H44.938Z" fill="#D9D9D9"/>
<circle cx="27.8422" cy="26.09" r="20.7162" fill="#FFBABA"/>
<circle cx="48.5583" cy="26.0614" r="7.1257" fill="#FFBABA"/>
<circle cx="7.1257" cy="26.0614" r="7.1257" fill="#FFBABA"/>
<path d="M24.0205 41.8643H31.7209V49.5646C31.7209 51.691 29.9971 53.4148 27.8707 53.4148C25.7443 53.4148 24.0205 51.691 24.0205 49.5646V41.8643Z" fill="#FFBABA"/>
<path d="M31.6729 5C31.3208 14.3422 23.1182 29.4381 6.7168 20.0217C12.5418 5 20.0686 5 31.6729 5C44.1224 6.92663 46.5556 15.4701 47.7168 20.086C33.2342 27.2627 31.987 13.4089 31.6729 5Z" fill="#721F1F"/>
</svg>
