<svg width="57" height="81" viewBox="-0.50 -1.23 56.68 80.50" fill="none" xmlns="http://www.w3.org/2000/svg">
<path d="M44.938 79.5032C44.938 74.969 43.1368 70.6206 39.9307 67.4145C36.7246 64.2084 32.3761 62.4072 27.842 62.4072C23.3079 62.4072 18.9595 64.2084 15.7534 67.4145C12.5473 70.6206 10.7461 74.969 10.7461 79.5032L27.842 79.5032H44.938Z" fill="#D9D9D9"/>
<circle cx="27.8422" cy="38.5879" r="20.7162" fill="#FFBABA"/>
<circle cx="48.5583" cy="38.5592" r="7.1257" fill="#FFBABA"/>
<circle cx="7.1257" cy="38.5592" r="7.1257" fill="#FFBABA"/>
<path d="M24.0205 54.3621H31.7209V62.0625C31.7209 64.1889 29.9971 65.9126 27.8707 65.9126C25.7443 65.9126 24.0205 64.1889 24.0205 62.0625V54.3621Z" fill="#FFBABA"/>
<circle cx="16.0326" cy="23.4459" r="7.98768" fill="#721F1F"/>
<circle cx="10.7455" cy="23.4459" r="7.98768" fill="#721F1F"/>
<circle cx="24.0199" cy="16.665" r="7.98768" fill="#721F1F"/>
<circle cx="15.1127" cy="14.194" r="7.98768" fill="#721F1F"/>
<circle cx="36.9496" cy="18.2164" r="7.98768" fill="#721F1F"/>
<circle cx="19.8832" cy="7.98768" r="7.98768" fill="#721F1F"/>
<circle cx="44.9379" cy="25.3421" r="7.98768" fill="#721F1F"/>
<circle cx="28.9613" cy="8.67725" r="7.98768" fill="#721F1F"/>
</svg>
